<?xml version="1.0" standalone="no"?>
<!DOCTYPE svg PUBLIC "-//W3C//DTD SVG 20010904//EN"
 "http://www.w3.org/TR/2001/REC-SVG-20010904/DTD/svg10.dtd">
<svg version="1.0" xmlns="http://www.w3.org/2000/svg"
 width="500.000000pt" height="500.000000pt" viewBox="0 0 500.000000 500.000000"
 preserveAspectRatio="xMidYMid meet">

<g transform="translate(0.000000,500.000000) scale(0.100000,-0.100000)"
fill="#000000" stroke="none">
<path d="M2550 4051 c-33 -66 -60 -128 -60 -136 0 -26 29 -16 45 15 16 32 29
35 98 24 31 -6 40 -13 52 -41 15 -36 39 -40 42 -7 1 10 -17 73 -40 139 -29 84
-47 121 -59 123 -13 3 -32 -26 -78 -117z m89 -2 c16 -46 15 -49 -24 -49 -40 0
-42 6 -17 49 21 39 27 39 41 0z"/>
<path d="M2242 4148 c-9 -12 9 -219 23 -256 6 -16 144 -5 164 13 26 25 2 38
-60 31 -67 -7 -64 -11 -75 109 -9 104 -25 136 -52 103z"/>
<path d="M2860 4127 c0 -2 -16 -57 -35 -122 -34 -115 -34 -145 -3 -133 7 3 22
37 32 74 10 38 22 75 25 81 4 7 27 -38 51 -100 61 -151 72 -151 116 -2 39 127
42 158 17 153 -12 -2 -25 -30 -44 -88 -21 -68 -28 -81 -35 -65 -4 11 -24 61
-44 110 -29 70 -42 91 -59 93 -11 2 -21 2 -21 -1z"/>
<path d="M2002 4102 c-17 -11 -46 -282 -31 -297 13 -13 39 20 39 50 0 17 11
25 56 39 l56 18 28 -27 c27 -26 50 -27 50 -3 0 11 -81 114 -149 188 -24 27
-40 38 -49 32z m75 -153 c-7 -4 -22 -10 -34 -13 -21 -7 -23 -4 -23 32 0 53 9
58 41 20 18 -22 23 -35 16 -39z"/>
<path d="M2910 3479 c0 -6 -27 -52 -61 -101 -94 -139 -132 -225 -137 -317 -4
-70 -1 -85 37 -188 l41 -111 -32 -54 c-18 -30 -55 -85 -83 -122 -43 -58 -50
-64 -53 -44 -6 57 -26 134 -47 181 -20 45 -22 60 -15 107 13 86 11 178 -4 215
-22 52 -102 132 -178 177 -68 40 -239 118 -259 118 -8 0 -10 -44 -7 -152 5
-125 9 -163 27 -211 42 -107 94 -147 195 -147 69 0 156 -32 195 -70 37 -38 71
-138 71 -211 0 -56 -1 -58 -47 -98 -67 -58 -141 -92 -212 -98 l-61 -6 -11 32
c-15 44 -38 53 -111 45 -69 -8 -98 -29 -98 -72 0 -15 -7 -37 -15 -49 -8 -12
-18 -43 -22 -70 -3 -26 -12 -61 -20 -76 -8 -15 -11 -37 -8 -49 6 -18 12 -19
63 -13 32 4 61 11 66 16 6 5 19 9 31 9 29 0 103 49 143 94 32 37 41 69 22 81
-19 12 -10 35 13 35 31 1 156 46 176 64 35 32 28 14 -22 -60 -45 -66 -63 -83
-142 -131 -180 -111 -262 -193 -287 -290 -10 -34 -17 -42 -40 -47 -16 -3 -42
-18 -57 -34 -25 -25 -28 -34 -26 -87 2 -59 26 -133 49 -147 6 -4 18 -5 26 -3
9 3 22 -7 32 -25 10 -17 25 -33 35 -37 10 -4 24 -14 31 -22 11 -14 14 -14 27
4 8 11 24 30 35 43 24 28 50 112 50 162 0 20 -7 59 -15 87 l-15 50 -60 12
c-41 8 -60 17 -60 27 0 20 38 93 66 127 36 43 161 136 272 201 8 5 4 -10 -9
-35 -12 -24 -30 -66 -39 -94 -17 -48 -18 -50 -52 -47 -30 3 -40 -3 -71 -38
-36 -39 -37 -42 -31 -98 7 -65 58 -177 90 -198 11 -8 26 -25 32 -39 14 -31 47
-33 63 -3 7 12 20 29 29 38 9 8 22 33 28 55 6 22 17 63 25 90 8 28 13 73 12
102 -3 67 -38 105 -90 96 -31 -5 -33 -4 -28 18 13 53 65 154 125 241 l63 92 5
-46 c3 -26 13 -55 22 -65 16 -18 16 -19 -2 -31 -25 -15 -26 -63 -4 -98 9 -14
38 -37 63 -51 25 -14 74 -43 108 -65 61 -37 96 -47 107 -29 4 5 7 47 8 93 1
66 -3 93 -21 132 -31 70 -68 116 -107 132 -30 13 -38 12 -65 -2 -17 -8 -38
-29 -47 -45 -20 -35 -28 -36 -38 -6 -21 65 -4 107 105 257 40 56 83 120 96
142 12 21 40 51 61 65 58 38 151 132 180 180 34 59 48 139 35 211 -6 34 -36
109 -73 184 -58 116 -78 147 -78 117z"/>
<path d="M1045 1876 c-61 -30 -104 -55 -97 -55 7 -1 31 8 54 20 41 21 57 16
58 -17 0 -23 42 -64 64 -64 32 0 76 37 76 63 -1 12 -11 41 -23 65 l-23 43
-109 -55z m128 -9 c21 -52 16 -71 -24 -87 -35 -15 -51 -5 -79 49 l-18 36 41
22 c23 12 47 22 52 23 6 0 18 -20 28 -43z"/>
<path d="M3811 1871 l-31 -61 108 -54 108 -54 32 64 c18 35 28 64 24 64 -5 0
-19 -25 -31 -55 -13 -30 -25 -55 -27 -55 -5 0 -86 40 -92 45 -2 2 9 26 23 55
14 29 24 54 21 58 -3 3 -17 -20 -31 -51 l-24 -56 -41 18 c-22 10 -43 20 -46
23 -3 4 7 29 21 58 14 29 24 54 21 57 -2 3 -19 -22 -35 -56z"/>
<path d="M1175 1720 c-17 -19 -18 -25 -6 -63 23 -77 23 -84 6 -100 -41 -41
-104 2 -106 72 0 28 -2 32 -8 16 -12 -29 5 -76 34 -102 32 -28 45 -29 79 -2
30 24 32 47 10 106 -16 41 -16 44 1 63 39 43 87 14 105 -63 l8 -32 1 32 c2 71
-82 120 -124 73z"/>
<path d="M3754 1730 c-29 -11 -80 -78 -68 -89 17 -16 185 -121 193 -121 10 0
51 74 51 94 0 28 -31 66 -74 90 -53 31 -76 37 -102 26z m99 -40 c64 -40 78
-71 52 -116 -11 -19 -24 -35 -30 -35 -13 -2 -175 104 -175 114 0 5 9 22 21 38
27 39 70 39 132 -1z"/>
<path d="M1351 1585 c9 -11 19 -25 22 -32 4 -6 -27 -41 -75 -82 l-82 -72 -23
28 c-12 16 -22 24 -22 18 0 -5 20 -32 44 -60 25 -27 45 -45 45 -41 0 5 -8 18
-17 29 -20 21 -24 15 105 124 l43 36 26 -24 27 -24 -21 30 c-12 17 -36 44 -54
60 -19 17 -27 21 -18 10z"/>
<path d="M3570 1507 c0 -4 39 -40 87 -82 l86 -76 25 23 c13 13 33 37 44 53 15
23 10 20 -21 -12 -23 -24 -44 -43 -48 -43 -3 0 -35 26 -72 58 -81 71 -101 86
-101 79z"/>
<path d="M3461 1409 c-30 -27 -51 -49 -46 -49 5 0 19 9 31 20 l21 21 72 -82
72 -81 -23 -25 c-20 -23 -21 -24 -3 -15 11 6 36 28 55 48 19 21 26 31 14 21
-11 -9 -24 -17 -28 -17 -8 0 -61 57 -121 129 l-29 33 25 18 c13 10 22 21 19
23 -3 3 -29 -17 -59 -44z"/>
<path d="M1438 1412 c-43 -28 -88 -92 -88 -124 0 -59 45 -97 92 -78 20 8 19 9
-13 9 -74 2 -89 61 -35 133 64 83 143 87 157 8 l6 -35 2 32 c1 23 -6 37 -25
52 -33 26 -61 26 -96 3z"/>
<path d="M3365 1308 c13 -57 22 -118 16 -118 -3 0 -30 16 -60 35 -30 19 -58
32 -62 29 -5 -3 22 -49 59 -103 37 -54 69 -97 71 -95 2 2 -21 42 -52 89 -32
47 -54 85 -50 85 3 0 28 -14 55 -31 27 -17 51 -29 54 -26 3 3 0 31 -6 62 -6
31 -10 59 -7 61 2 2 28 -32 57 -76 29 -44 57 -83 62 -87 15 -8 -5 25 -67 116
-56 81 -80 101 -70 59z"/>
<path d="M1574 1265 c-66 -68 -77 -147 -25 -174 50 -27 98 -2 142 73 35 62 36
90 4 121 -37 38 -71 33 -121 -20z m114 15 c29 -27 28 -45 -8 -107 -45 -79 -92
-103 -132 -66 -28 25 -23 74 14 124 53 74 85 87 126 49z"/>
<path d="M3200 1225 c0 -3 18 -42 41 -86 46 -93 48 -126 7 -149 -40 -22 -56
-8 -108 93 -25 48 -48 87 -53 87 -9 0 69 -158 91 -182 22 -26 68 -22 98 7 30
30 27 48 -28 158 -34 68 -48 89 -48 72z"/>
<path d="M1743 1113 l-51 -108 55 -28 c30 -16 57 -26 60 -23 3 2 -18 16 -46
30 -28 15 -51 29 -51 31 0 3 23 50 50 105 28 55 47 100 42 100 -4 0 -31 -48
-59 -107z"/>
<path d="M3030 1139 c0 -4 7 -26 15 -49 8 -23 15 -46 15 -50 0 -11 -97 -43
-108 -36 -5 3 -15 26 -22 51 -7 25 -16 45 -21 45 -8 0 64 -217 76 -228 9 -9 5
12 -10 53 -8 22 -14 45 -15 52 0 9 78 43 101 43 4 0 15 -24 25 -52 9 -29 19
-48 21 -42 2 6 -11 51 -28 100 -29 84 -48 127 -49 113z"/>
<path d="M1957 1110 c-28 -22 -57 -96 -57 -147 0 -43 30 -73 73 -73 41 0 62
21 88 89 25 68 24 97 -6 126 -29 30 -64 32 -98 5z m85 -7 c25 -30 28 -50 13
-101 -28 -92 -80 -127 -127 -85 -22 20 -23 56 -3 114 28 79 82 112 117 72z"/>
<path d="M2159 1067 c-39 -30 -66 -131 -49 -182 14 -41 59 -63 95 -47 21 10
25 9 26 -6 1 -9 7 8 15 38 14 60 9 71 -36 68 -24 -1 -24 -1 3 -5 21 -3 27 -10
27 -29 0 -29 -33 -64 -60 -64 -11 0 -30 10 -41 21 -19 19 -21 30 -16 79 6 70
29 118 61 126 30 7 64 -10 76 -39 7 -17 9 -18 9 -4 2 44 -72 73 -110 44z"/>
<path d="M2358 1043 l32 -4 0 -63 c0 -35 -3 -84 -6 -110 -7 -45 -8 -46 -42
-46 -58 0 -33 -7 48 -13 74 -6 81 -4 29 7 -26 6 -27 7 -22 73 2 38 6 87 9 110
5 41 6 42 37 38 29 -4 29 -4 7 4 -14 5 -47 9 -75 8 -33 0 -39 -2 -17 -4z"/>
<path d="M2587 1043 c-3 -4 -17 -53 -31 -108 -15 -55 -29 -108 -32 -117 -3
-10 -1 -18 4 -18 6 0 13 17 17 39 6 35 10 39 43 45 59 9 62 8 82 -36 35 -81
20 -20 -21 83 -44 109 -53 126 -62 112z m36 -79 l25 -62 -41 -5 c-23 -3 -43
-4 -45 -3 -1 2 5 33 14 70 9 37 18 65 19 64 2 -2 14 -31 28 -64z"/>
</g>
</svg>
